<mxfile host="app.diagrams.net" modified="2023-02-10T16:25:18.373Z" agent="5.0 (Macintosh; Intel Mac OS X 10_15_7) AppleWebKit/605.1.15 (KHTML, like Gecko) Version/16.3 Safari/605.1.15" etag="EnlIrdfuR9GzzSxhTafh" version="20.8.18" type="github">
  <diagram name="Page-1" id="MdwOxQZp0bFB1ykU0gYo">
    <mxGraphModel dx="954" dy="675" grid="1" gridSize="10" guides="1" tooltips="1" connect="1" arrows="1" fold="1" page="1" pageScale="1" pageWidth="827" pageHeight="1169" math="0" shadow="0">
      <root>
        <mxCell id="0" />
        <mxCell id="1" parent="0" />
        <mxCell id="EScXoc23DCzEm5EJtcml-4" value="Mobile client" style="sketch=0;outlineConnect=0;fontColor=#232F3E;gradientColor=none;strokeColor=#232F3E;fillColor=#ffffff;dashed=0;verticalLabelPosition=bottom;verticalAlign=top;align=center;html=1;fontSize=12;fontStyle=0;aspect=fixed;shape=mxgraph.aws4.resourceIcon;resIcon=mxgraph.aws4.mobile_client;" parent="1" vertex="1">
          <mxGeometry x="70" y="235" width="90" height="90" as="geometry" />
        </mxCell>
        <mxCell id="EScXoc23DCzEm5EJtcml-6" value="Centralised Database" style="shape=cylinder3;whiteSpace=wrap;html=1;boundedLbl=1;backgroundOutline=1;size=15;" parent="1" vertex="1">
          <mxGeometry x="650" y="225" width="100" height="110" as="geometry" />
        </mxCell>
        <mxCell id="EScXoc23DCzEm5EJtcml-7" value="Tower" style="verticalAlign=top;verticalLabelPosition=bottom;labelPosition=center;align=center;html=1;outlineConnect=0;gradientDirection=north;strokeWidth=2;shape=mxgraph.networks.radio_tower;labelBackgroundColor=none;" parent="1" vertex="1">
          <mxGeometry x="380" y="200" width="90" height="160" as="geometry" />
        </mxCell>
        <mxCell id="EScXoc23DCzEm5EJtcml-15" value="" style="shape=flexArrow;endArrow=classic;startArrow=none;html=1;rounded=0;fontColor=#000000;" parent="1" source="hbM3twGX2cArAjpzbTVf-3" target="EScXoc23DCzEm5EJtcml-7" edge="1">
          <mxGeometry width="100" height="100" relative="1" as="geometry">
            <mxPoint x="360" y="440" as="sourcePoint" />
            <mxPoint x="460" y="340" as="targetPoint" />
          </mxGeometry>
        </mxCell>
        <mxCell id="EScXoc23DCzEm5EJtcml-16" value="" style="shape=flexArrow;endArrow=classic;startArrow=classic;html=1;rounded=0;fontColor=#000000;entryX=0;entryY=0.5;entryDx=0;entryDy=0;entryPerimeter=0;" parent="1" source="EScXoc23DCzEm5EJtcml-7" target="EScXoc23DCzEm5EJtcml-6" edge="1">
          <mxGeometry width="100" height="100" relative="1" as="geometry">
            <mxPoint x="530" y="370" as="sourcePoint" />
            <mxPoint x="630" y="270" as="targetPoint" />
          </mxGeometry>
        </mxCell>
        <mxCell id="hbM3twGX2cArAjpzbTVf-4" value="" style="shape=flexArrow;endArrow=none;startArrow=classic;html=1;rounded=0;fontColor=#000000;" edge="1" parent="1" source="EScXoc23DCzEm5EJtcml-4" target="hbM3twGX2cArAjpzbTVf-3">
          <mxGeometry width="100" height="100" relative="1" as="geometry">
            <mxPoint x="180" y="280" as="sourcePoint" />
            <mxPoint x="380" y="280" as="targetPoint" />
          </mxGeometry>
        </mxCell>
        <mxCell id="hbM3twGX2cArAjpzbTVf-3" value="Encryption Layer" style="rounded=1;whiteSpace=wrap;html=1;" vertex="1" parent="1">
          <mxGeometry x="210" y="255" width="120" height="50" as="geometry" />
        </mxCell>
      </root>
    </mxGraphModel>
  </diagram>
</mxfile>
